<?xml version="1.0" encoding="utf-8"?>
<!-- Generator: Adobe Illustrator 12.0.0, SVG Export Plug-In . SVG Version: 6.00 Build 51448)  -->
<!DOCTYPE svg PUBLIC "-//W3C//DTD SVG 1.1//EN" "http://www.w3.org/Graphics/SVG/1.1/DTD/svg11.dtd" [
	<!ENTITY ns_svg "http://www.w3.org/2000/svg">
	<!ENTITY ns_xlink "http://www.w3.org/1999/xlink">
]>
<svg  version="1.1" id="Layer_1" xmlns="&ns_svg;" xmlns:xlink="&ns_xlink;"
	 viewBox="0 0 293.27 97.109" overflow="visible" enable-background="new 0 0 293.27 97.109" xml:space="preserve">
<path fill="#28903A" d="M11.648,27.949c-3.752,7.952-4.704,16.52-4.704,27.888c0,11.929,1.008,21.84,4.704,30.576H7.952
	C3.024,75.27,0,65.133,0,55.837c0-8.568,3.024-17.808,7.952-27.888H11.648z"/>
<path d="M55.271,77.341c-2.24,0.392-4.312,1.063-6.104,1.681c-3.024,1.008-5.992,1.959-11.088,1.959
	C25.032,81.148,13.832,70.173,14,57.349c-0.168-13.048,10.304-24.248,25.032-24.248c4.424,0,7.784,0.896,10.136,1.568
	c1.4,0.392,2.8,0.784,3.584,0.784c0.448,0,1.008-0.056,1.512-0.112h-0.056c0.952-0.224,1.456-0.056,1.456,0.896
	c-0.056,0.504-0.056,0.896-0.056,1.288c0,0.448,0,1.008,0.056,1.736c0,0.224,0.056,0.504,0.056,0.728
	c0.056,0.784,0.056,1.68,0.056,2.016c0,0.672-0.392,1.792-0.952,1.792c-0.504,0-1.008-0.504-1.456-1.176
	c-1.4-2.072-2.856-3.808-4.648-4.76h0.056c-2.688-1.344-5.6-2.016-8.624-2.016C28.448,35.845,21,44.413,21,55.893
	c-0.112,11.368,7.84,22.4,17.752,22.4c2.856,0,10.64-1.792,11.256-6.384c0-0.337,0-1.288-0.056-1.792
	c-0.056-2.52-0.112-4.256-0.168-5.32c-0.112-1.736-0.336-3.136-0.672-3.809c-0.448-1.007-1.344-1.903-2.576-2.688v-0.28
	c2.856,0.28,5.096,0.392,6.552,0.392c0.896,0,3.136-0.224,4.592-0.336c0.224,0,1.12-0.056,1.288-0.056l-0.056,0.224
	c-1.848,0.952-2.352,2.8-2.632,11.479v5.769C56.279,76.165,56.056,77.173,55.271,77.341z"/>
<path d="M61.543,80.477v-0.336c1.792-0.896,3.136-2.855,3.248-5.152c0.056-3.752,0.112-10.079,0.112-16.967
	c0-5.768-0.168-11.872-0.448-17.472c-0.168-2.744-0.84-4.872-3.248-6.496v-0.28c2.856,0.28,5.096,0.392,6.552,0.392
	c0.84,0,2.128-0.056,3.808-0.224c0.392,0,0.784-0.056,1.064-0.056c0.392,0,0.784,0,1.624-0.168v0.336
	c-2.072,1.064-2.856,3.64-3.08,6.72c0,0.392-0.056,0.84-0.056,1.232c-0.056,1.176-0.112,2.464-0.112,4.648
	c-0.056,1.736-0.056,5.488-0.056,11.2c0,5.208,0.168,10.808,0.448,16.799c0.168,2.521,1.176,4.537,3.36,5.488v0.336
	c-2.408-0.168-5.096-0.336-6.888-0.336C66.191,80.141,64.007,80.253,61.543,80.477z"/>
<path d="M118.326,77.341c-2.239,0.392-4.312,1.063-6.104,1.681c-3.024,1.008-5.992,1.959-11.088,1.959
	c-13.048,0.168-24.248-10.808-24.08-23.631c-0.168-13.048,10.304-24.248,25.032-24.248c4.424,0,7.784,0.896,10.136,1.568
	c1.4,0.392,2.8,0.784,3.584,0.784c0.448,0,1.008-0.056,1.512-0.112h-0.056c0.952-0.224,1.456-0.056,1.456,0.896
	c-0.056,0.504-0.056,0.896-0.056,1.288c0,0.448,0,1.008,0.056,1.736c0,0.224,0.056,0.504,0.056,0.728
	c0.057,0.784,0.057,1.68,0.057,2.016c0,0.672-0.393,1.792-0.952,1.792c-0.504,0-1.008-0.504-1.456-1.176
	c-1.4-2.072-2.856-3.808-4.648-4.76h0.056c-2.688-1.344-5.6-2.016-8.624-2.016c-11.704,0-19.152,8.568-19.152,20.048
	c-0.112,11.368,7.84,22.4,17.752,22.4c2.856,0,10.64-1.792,11.256-6.384c0-0.337,0-1.288-0.056-1.792
	c-0.056-2.52-0.112-4.256-0.168-5.32c-0.112-1.736-0.336-3.136-0.672-3.809c-0.448-1.007-1.344-1.903-2.576-2.688v-0.28
	c2.856,0.28,5.096,0.392,6.552,0.392c0.896,0,3.136-0.224,4.592-0.336c0.225,0,1.12-0.056,1.288-0.056l-0.056,0.224
	c-1.848,0.952-2.353,2.8-2.632,11.479v5.769C119.335,76.165,119.11,77.173,118.326,77.341z"/>
<path d="M159.711,74.429c1.176,2.912,2.855,4.816,5.096,5.712v0.393c-2.52-0.393-4.705-0.616-6.721-0.616
	c-2.072,0-4.479,0.224-7.168,0.616v-0.448c0-0.168,0.336-0.672,0.896-1.513c0.615-0.896,0.896-1.567,0.896-2.127
	c0-0.784-0.225-1.625-0.393-2.185c-1.455-3.92-2.912-8.063-4.367-11.983h0.447c-2.856-0.28-5.32-0.393-7.336-0.393
	c-2.743,0-5.319,0.112-7.728,0.393h0.448c-1.624,4.312-3.36,8.68-4.984,12.992c-0.392,1.119-0.616,1.959-0.616,2.631
	c0,0.896,0.337,1.681,1.009,2.353v0.28c-2.017-0.28-3.696-0.448-5.097-0.448c-1.735,0-3.64,0.112-5.544,0.392l0.28-0.279
	c2.688-0.896,4.872-3.305,6.216-6.049c4.424-10.808,9.128-21.951,13.552-32.759c0.057-0.224,0.112-0.616,0.112-0.952
	c0-2.296-1.792-4.816-4.256-6.44l-0.112-0.28c2.072,0.224,5.208,0.336,7.28,0.336h2.016l2.576,6.552L159.711,74.429z
	 M146.719,59.309h0.057c-2.017-5.264-3.584-9.184-5.601-14.448c-1.96,4.816-3.976,9.632-5.936,14.448h0.056v0.28h-0.504
	c2.016,0.112,4.032,0.168,6.16,0.168c2.184,0,4.2-0.056,6.272-0.168h-0.504V59.309z"/>
<path fill="#28903A" d="M170.743,27.949c4.928,10.08,7.953,19.32,7.953,27.888c0,9.296-3.025,19.433-7.953,30.576h-3.695
	c3.695-8.736,4.703-18.647,4.703-30.576c0-11.368-0.951-19.936-4.703-27.888H170.743z"/>
<path d="M192.807,34.445c0.727,0,1.512-0.056,2.352-0.056c1.232-0.056,2.576-0.056,3.137-0.056c6.383,0,11.871,3.192,11.871,10.528
	c-0.057,4.424-2.744,8.344-7.504,10.192h-0.111c7.168,1.288,12.543,5.599,12.543,12.599c0,9.353-7.729,12.656-16.408,12.656
	c-0.672,0-1.736,0-3.191-0.056c-0.783,0-2.24-0.056-3.191-0.056c-2.24-0.057-3.641-0.057-4.256-0.057
	c-2.018,0-4.984,0.112-7.057,0.336v-0.392c0.84-0.448,1.736-1.345,2.576-2.744c0.783-1.231,1.176-2.407,1.232-3.64
	c0.168-2.633,0.223-4.984,0.223-7.112c0.057-2.185,0.057-5.04,0.057-8.568c0-5.768-0.168-11.872-0.447-17.472
	c-0.168-2.8-0.896-4.648-3.473-6.048v-0.392c2.576,0.28,4.984,0.392,6.775,0.392C189.11,34.501,190.735,34.501,192.807,34.445z
	 M192.639,76.893c1.119,0.672,3.248,1.008,6.383,1.008c5.6,0,9.465-2.967,9.465-8.735c0-6.16-3.641-11.928-12.096-11.928
	c-0.113,0-0.729,0-1.68-0.056c-0.896-0.056-2.465-0.112-3.641-0.112c0,1.232,0,4.76,0.057,6.552c0,0.951,0.055,1.848,0.055,2.688
	c0.057,2.297,0.057,5.041,0.057,6.553C191.239,74.988,191.686,76.333,192.639,76.893z M191.239,44.973c0,0.952,0,2.352,0.057,4.312
	c0,0.392,0.055,0.784,0.055,1.176c0.057,1.344,0.057,2.968,0.057,3.864c0.336,0,0.615,0,1.119,0.056
	c0.393,0,1.064,0.056,1.568,0.056c1.176,0.056,2.016,0.056,2.408,0.056c3.137,0,7.336-2.464,7.336-9.632
	c0-6.384-4.816-8.4-8.568-8.4c-0.672,0-1.623,0.056-2.855,0.168c-0.225,0-0.393,0.056-0.561,0.056c-0.111,0-0.223,0-0.336,0.056
	h0.281c-0.225,0.504-0.336,1.456-0.393,2.856c-0.057,0.616-0.057,1.008-0.057,1.176C191.295,42.117,191.239,43.517,191.239,44.973z"
	/>
<path d="M217.055,80.477v-0.336c1.791-0.896,3.135-2.855,3.248-5.152c0.055-3.752,0.111-10.079,0.111-16.967
	c0-2.072,0-3.808-0.057-5.208c0-0.224-0.055-0.448-0.055-0.728c-0.057-1.4-0.113-3.472-0.336-7.56
	c-0.168-2.744-1.008-4.928-3.809-5.32v-0.28c0.504-0.504,1.455-0.728,3.08-1.064c0.783-0.168,1.455-0.336,1.848-0.448
	s1.008-0.448,1.68-0.896c1.064-0.616,1.904-0.896,4.48-0.896v0.336c-0.279,0.504-0.561,4.088-0.672,8.568
	c-0.111,4.312-0.111,9.016-0.111,13.328c0,5.208,0.111,10.808,0.447,16.799c0.168,2.521,1.176,4.537,3.359,5.488v0.336
	c-2.408-0.168-5.096-0.336-6.887-0.336C221.702,80.141,219.518,80.253,217.055,80.477z"/>
<path d="M262.247,67.316c0,7.84-6.328,13.889-15.736,13.889c-9.744,0-14-6.832-14-14.896c0-7.784,6.047-13.775,15.512-13.775
	C256.03,52.533,262.247,59.477,262.247,67.316z M238.95,64.686c0,6.159,3.809,13.495,8.457,13.495c4.982,0,8.566-3.36,8.566-9.184
	c0-6.216-3.92-13.496-9.016-13.496C242.086,55.501,238.95,58.693,238.95,64.686z"/>
<path d="M283.133,53.317h-0.111c0.504,0.112,0.84,0.28,1.232,0.504c0.951,0.56,1.623,0.84,2.07,0.84
	c0.842,0,1.904-0.448,3.529-1.176c1.008-0.504,1.791-0.728,2.184-0.728c0.84,0,1.232,0.336,1.232,0.952v2.744
	c0,1.568-2.352,2.464-4.48,2.632h0.279c0.561,1.4,0.785,2.912,0.785,4.479c0,6.104-5.545,10.977-13.832,10.977h-1.121
	c-1.68,0.783-2.744,1.512-2.744,2.968c0,1.177,1.289,1.456,2.354,1.456l7.336-0.111c8.398,0,11.424,2.295,11.424,7.447
	c0,5.04-9.016,10.809-16.855,10.809c-8.514,0-11.93-1.232-11.93-5.992c0-2.185,2.129-5.041,5.377-7.672h0.225
	c-2.801-0.672-3.865-1.961-3.865-3.92c0-2.185,2.52-4.424,5.264-5.881c-3.639-1.68-5.879-5.375-5.879-9.8
	c0-7.336,6.104-11.368,12.824-11.368C280.221,52.477,281.79,52.757,283.133,53.317z M274.678,83.557h0.168
	c-2.912,1.512-3.92,3.416-3.92,5.992c0,3.584,2.352,4.592,6.104,4.592c4.816,0,10.809-2.912,10.809-6.775
	c0-2.633-2.072-4.256-6.441-4.256C278.485,83.109,276.469,83.165,274.678,83.557z M272.157,62.053c0,4.984,2.408,9.688,5.713,9.688
	c3.527,0,5.768-2.184,5.768-6.383c0-5.433-2.744-10.417-6.104-10.417C274.061,54.941,272.157,57.293,272.157,62.053z"/>
</svg>
