<?xml version="1.0" encoding="utf-8"?>
<!-- Generator: Adobe Illustrator 15.0.2, SVG Export Plug-In . SVG Version: 6.00 Build 0)  -->
<!DOCTYPE svg PUBLIC "-//W3C//DTD SVG 1.1//EN" "http://www.w3.org/Graphics/SVG/1.1/DTD/svg11.dtd">
<svg version="1.1" id="Layer_1" xmlns="http://www.w3.org/2000/svg" xmlns:xlink="http://www.w3.org/1999/xlink" x="0px" y="0px"
	 width="841.89px" height="595.28px" viewBox="0 0 841.89 595.28" enable-background="new 0 0 841.89 595.28" xml:space="preserve">
<path fill="#079347" d="M37.496,109.544c-8.188,17.357-10.267,36.057-10.267,60.871c0,26.033,2.201,47.663,10.267,66.731h-8.065
	c-10.755-24.322-17.356-46.445-17.356-66.731c0-18.702,6.601-38.87,17.356-60.871H37.496z"/>
<path d="M145.764,225.89c-5.838,1.021-11.239,2.774-15.908,4.375c-7.883,2.628-15.619,5.111-28.899,5.111
	c-34.007,0.436-63.195-28.167-62.757-61.592c-0.438-34.007,26.853-63.198,65.237-63.198c11.531,0,20.289,2.337,26.419,4.087
	c3.648,1.024,7.298,2.045,9.34,2.045c1.166,0,2.628-0.145,3.94-0.292h-0.146c2.482-0.584,3.796-0.147,3.796,2.334
	c-0.146,1.312-0.146,2.335-0.146,3.357c0,1.168,0,2.625,0.146,4.525c0,0.583,0.144,1.314,0.144,1.897
	c0.147,2.045,0.147,4.377,0.147,5.253c0,1.752-1.021,4.67-2.479,4.67c-1.314,0-2.628-1.312-3.797-3.063
	c-3.646-5.402-7.445-9.926-12.114-12.407h0.148c-7.007-3.501-14.598-5.253-22.478-5.253c-30.505,0-49.914,22.331-49.914,52.25
	c-0.293,29.626,20.431,58.378,46.266,58.378c7.443,0,27.73-4.671,29.337-16.638c0-0.875,0-3.356-0.147-4.67
	c-0.145-6.567-0.292-11.09-0.439-13.863c-0.289-4.524-0.872-8.175-1.75-9.926c-1.168-2.628-3.503-4.962-6.714-7.007v-0.728
	c7.444,0.728,13.283,1.021,17.078,1.021c2.334,0,8.172-0.586,11.966-0.876c0.586,0,2.92-0.145,3.359-0.145l-0.147,0.581
	c-4.816,2.483-6.13,7.299-6.858,29.922v15.032C148.392,222.821,147.805,225.449,145.764,225.89z"/>
<path d="M164.782,234.062v-0.877c4.67-2.334,8.174-7.443,8.464-13.428c0.148-9.776,0.294-26.27,0.294-44.221
	c0-15.033-0.439-30.94-1.166-45.538c-0.439-7.153-2.191-12.697-8.468-16.929v-0.73c7.442,0.73,13.281,1.021,17.078,1.021
	c2.189,0,5.546-0.146,9.923-0.583c1.022,0,2.045-0.146,2.774-0.146c1.02,0,2.045,0,4.231-0.438v0.876
	c-5.397,2.773-7.443,9.486-8.026,17.516c0,1.021-0.146,2.187-0.146,3.208c-0.147,3.063-0.292,6.422-0.292,12.114
	c-0.145,4.525-0.145,14.301-0.145,29.188c0,13.577,0.438,28.17,1.167,43.786c0.437,6.567,3.065,11.824,8.757,14.303v0.877
	c-6.275-0.438-13.28-0.877-17.951-0.877C176.896,233.185,171.204,233.479,164.782,234.062z"/>
<path d="M315.438,225.89c-5.837,1.021-11.238,2.774-15.91,4.375c-7.88,2.628-15.618,5.111-28.898,5.111
	c-34.007,0.436-63.195-28.167-62.759-61.592c-0.436-34.007,26.854-63.198,65.239-63.198c11.531,0,20.29,2.337,26.417,4.087
	c3.65,1.024,7.299,2.045,9.341,2.045c1.166,0,2.628-0.145,3.939-0.292h-0.145c2.48-0.584,3.795-0.147,3.795,2.334
	c-0.146,1.312-0.146,2.335-0.146,3.357c0,1.168,0,2.625,0.146,4.525c0,0.583,0.146,1.314,0.146,1.897
	c0.148,2.045,0.148,4.377,0.148,5.253c0,1.752-1.022,4.67-2.48,4.67c-1.316,0-2.629-1.312-3.797-3.063
	c-3.647-5.402-7.444-9.926-12.114-12.407h0.147c-7.005-3.501-14.597-5.253-22.476-5.253c-30.506,0-49.916,22.331-49.916,52.25
	c-0.293,29.626,20.432,58.378,46.265,58.378c7.444,0,27.731-4.671,29.337-16.638c0-0.875,0-3.356-0.147-4.67
	c-0.146-6.567-0.291-11.09-0.438-13.863c-0.291-4.524-0.875-8.175-1.749-9.926c-1.169-2.628-3.504-4.962-6.715-7.007v-0.728
	c7.443,0.728,13.281,1.021,17.076,1.021c2.336,0,8.173-0.586,11.968-0.876c0.584,0,2.92-0.145,3.358-0.145l-0.147,0.581
	c-4.817,2.483-6.13,7.299-6.858,29.922v15.032C318.066,222.821,317.481,225.449,315.438,225.89z"/>
<path d="M436.062,218.299c3.066,7.591,7.444,12.552,13.283,14.886v1.022c-6.569-1.022-12.262-1.605-17.516-1.605
	c-5.401,0-11.676,0.583-18.681,1.605v-1.169c0-0.436,0.875-1.75,2.335-3.939c1.603-2.335,2.334-4.084,2.334-5.547
	c0-2.042-0.583-4.229-1.02-5.69c-3.795-10.217-7.591-21.018-11.386-31.231h1.167c-7.443-0.73-13.865-1.024-19.119-1.024
	c-7.15,0-13.866,0.293-20.142,1.024h1.167c-4.231,11.238-8.755,22.621-12.986,33.859c-1.024,2.918-1.607,5.106-1.607,6.857
	c0,2.338,0.876,4.38,2.628,6.132v0.729c-5.253-0.729-9.635-1.169-13.284-1.169c-4.522,0-9.486,0.296-14.448,1.024l0.73-0.729
	c7.006-2.337,12.697-8.612,16.201-15.763c11.529-28.171,23.792-57.214,35.319-85.384c0.147-0.581,0.294-1.602,0.294-2.478
	c0-5.987-4.671-12.555-11.094-16.785l-0.291-0.73c5.399,0.583,13.573,0.876,18.972,0.876h5.253l6.714,17.074L436.062,218.299z
	 M402.202,178.89h0.147c-5.254-13.715-9.341-23.932-14.595-37.653c-5.107,12.552-10.365,25.104-15.474,37.653h0.148v0.731h-1.314
	c5.254,0.293,10.507,0.439,16.054,0.439c5.696,0,10.948-0.146,16.347-0.439h-1.313V178.89z"/>
<path fill="#079347" d="M468.989,109.544c10.755,22.001,17.354,42.169,17.354,60.871c0,20.286-6.6,42.409-17.354,66.731h-8.066
	c8.066-19.068,10.268-40.699,10.268-66.731c0-24.814-2.08-43.514-10.268-60.871H468.989z"/>
<path d="M236.211,349.047c-2.762-0.785-4.932-1.383-5.136-1.383c-5.917-1.773-7.296-5.327-7.296-12.23c0,0,0-0.6-0.2-1.58
	c-0.791-4.937-1.382-9.671-1.382-13.818c0-3.154,1.977-6.908,5.328-6.908c0.985,0,2.568,1.187,3.354,3.36
	c1.975,5.525,3.753,10.264,6.909,14.206c3.356,3.947,8.479,7.502,13.42,10.067c6.706,2.562,19.931,4.142,24.07,4.142
	c13.032,0,29.212-10.262,29.212-28.812c0-17.168-15.591-26.647-29.603-34.925c-3.552-2.177-7.894-4.545-11.051-6.719
	c-18.353-12.43-35.917-23.478-35.917-44.986c0-20.328,14.405-41.445,44.207-41.445c2.962,0,7.495,0.592,13.22,1.576
	c5.725,1.185,9.673,1.772,12.237,1.772c0.593,0,1.975-0.39,3.75-0.982h-0.198c1.974-0.79,3.945-1.179,5.921-1.179
	c2.167,0,3.159,0.584,3.159,1.771c0,3.358,0.393,8.29,0.986,14.409c0.588,5.916,0.788,10.456,0.788,13.416
	c0,1.384-1.773,3.355-3.551,3.355c-2.167,0-4.343-2.175-6.515-6.315c-2.365-4.74-4.735-8.088-6.315-9.867
	c-7.105-5.921-18.16-9.277-25.853-9.277c-10.85,0-22.69,10.461-22.69,22.303c0,16.972,12.627,26.047,26.045,35.326
	c1.584,1.18,3.159,2.164,4.739,3.351c4.933,3.75,8.881,6.314,13.025,8.685c17.165,10.853,33.941,21.509,33.941,40.851
	c0,26.643-17.564,46.766-53.086,46.766C262.851,353.977,247.458,352.402,236.211,349.047z"/>
<path d="M419.678,270.193c-2.71-3.701-5.916-7.151-9.492-9.249c-5.549-2.711-12.212-4.192-19.485-4.192
	c-25.779,0-42.178,18.869-42.178,44.148c-0.37,24.91,19.237,48.959,40.698,48.466c9.863,0,24.789-3.698,32.556-10.728
	c0.495-0.617,1.727-2.098,2.959-3.701c0.985-1.233,2.096-1.85,2.714-1.85c1.354,0,1.973,0.247,1.973,0.742
	c0,0.862-0.988,3.206-3.453,8.138c-0.739,1.355-1.233,2.345-1.355,2.714c-0.739,1.727-2.469,3.33-5.182,4.685
	c-9.987,4.935-19.977,6.784-33.295,6.784c-28.734,0.369-53.397-23.801-53.028-52.045c-0.369-28.732,22.937-53.765,55.124-53.398
	c6.046,0,13.689,0.987,21.461,2.465l1.972,0.373c3.327,0.741,5.672,1.107,7.153,1.107c0.249,0,0.74-0.123,1.48-0.367h-0.125
	c0.493-0.248,0.989-0.374,1.728-0.374c1.974,0,2.218,2.224,2.218,5.801c0,1.105,0.127,3.079,0.371,5.793
	c0,0.618,0.124,1.233,0.124,1.851c0.122,0.986,0.122,2.344,0.122,2.961c0,1.354-0.617,2.097-2.094,2.097
	C421.777,272.414,420.418,271.178,419.678,270.193z"/>
<path d="M435.11,355.039v-0.738c3.945-1.973,6.906-6.289,7.15-11.347c0.126-8.262,0.248-22.199,0.248-37.366
	c0-12.703-0.37-26.144-0.988-38.479c-0.369-6.041-1.846-10.728-7.15-14.302v-0.622c6.288,0.622,11.223,0.867,14.429,0.867
	c1.852,0,4.686-0.124,8.386-0.494c0.863,0,1.726-0.123,2.344-0.123c0.862,0,1.727,0,3.575-0.37v0.743
	c-4.563,2.338-6.288,8.011-6.783,14.799c0,0.862-0.12,1.847-0.12,2.711c-0.125,2.587-0.249,5.425-0.249,10.234
	c-0.124,3.824-0.124,12.085-0.124,24.663c0,11.469,0.373,23.804,0.988,37c0.369,5.549,2.589,9.988,7.401,12.086v0.738
	c-5.307-0.367-11.228-0.738-15.172-0.738C445.347,354.301,440.535,354.548,435.11,355.039z"/>
<path d="M474.332,354.672c-0.493,0-0.987,0.121-1.48,0.121l-2.344,0.122v-1.601c3.946-1.972,9.126-9.62,9.126-14.924v-3.083
	c0.121-4.935,0.247-9.247,0.247-12.578v-17.515c0-12.699-0.369-26.143-0.987-38.476c-0.373-5.178-3.205-10.237-9.497-13.567
	l-0.246-0.987l2.098,0.124c0.493,0,1.107,0.126,1.604,0.126c7.029,0.617,13.566,1.11,16.526,1.11c2.587,0,7.026-0.121,13.812-0.493
	l3.45-0.245c5.676-0.373,10.608-0.622,13.195-0.622c7.77,0,13.322,0.496,13.322,2.591c0,1.853,0.243,4.071,0.613,6.662
	c0.251,2.095,0.373,3.698,0.373,4.809c0,0.742-0.617,1.11-1.974,1.11c-1.357,0-2.097-0.617-2.715-1.728l-0.371-0.738h0.126
	c0,0-0.618-0.863-0.618-0.986h0.123c-2.465-3.578-8.384-6.415-20.103-6.415c-1.477,0-4.19,0.124-7.768,0.494
	c-1.852,0.124-3.454,0.25-4.812,0.374c-0.734,0-1.354,0.119-1.97,0.119h0.615c-0.37,1.357-0.739,3.455-0.862,6.536
	c0,0.738-0.122,1.481-0.122,2.222c-0.126,3.327-0.249,7.029-0.371,11.097c-0.124,4.069-0.124,10.857-0.124,20.472
	c1.972,0,4.069,0,7.273,0.124c1.237,0,3.333,0.126,4.194,0.126c1.358,0.122,2.469,0.122,3.701,0.122c1.356,0,2.713,0,4.809-0.122
	c5.182-0.25,9.623-1.729,13.073-7.153h3.082c-0.122,0.618-0.248,1.109-0.248,1.725c-0.122,0.616-0.122,1.233-0.122,1.728
	c-0.37,2.587-0.492,4.437-0.492,7.029v4.562c0,0.615,0,1.479,0.122,2.593c0,0.614,0.123,1.354,0.123,2.216h-3.207
	c-2.344-4.685-7.519-6.411-13.441-6.782c-2.465-0.245-5.67-0.371-9.742-0.371c-2.71,0-6.043,0.126-9.497,0.247h0.372
	c0,5.798,0.124,11.102,0.246,15.909c0.123,4.565,0.371,10.978,0.74,17.512c0.37,9.002,11.84,10.853,20.472,10.853
	c7.032,0,11.964-0.738,16.525-4.313c1.478-1.233,3.824-3.948,7.028-7.77c1.85-2.099,3.208-3.206,4.315-3.206
	c1.605,0,2.345,0.367,2.345,1.107c0,1.231-0.861,2.961-2.96,6.533c-1.851,3.211-2.959,5.798-3.453,7.896
	c-0.862,2.962-2.097,4.687-8.633,4.687h-18.619c-5.181,0-9.744,0-13.693-0.121h-11.095
	C483.332,353.932,479.512,354.301,474.332,354.672z"/>
<path d="M624.796,251.694c0.247,0,0.865,0.127,1.23,0.127c0.74,0.119,1.48,0.243,2.469,0.364c2.098,0.373,3.696,0.622,4.688,0.622
	c1.848,0,4.681-0.126,8.385-0.499c0.862,0,1.726-0.124,2.345-0.124c0.861,0,1.724,0,3.574-0.364v0.736
	c-4.563,2.218-6.412,8.016-6.784,14.799c-0.247,3.455-0.368,6.413-0.368,12.947c0,5.554,0,26.025-0.248,37.988
	c-0.122,6.038-0.122,12.945-0.122,16.4c0,5.918,0.122,10.604,0.244,14.182c0,0.74,0,1.482,0.126,2.097
	c0.121,1.973,0.121,3.204,0.121,3.822c0,1.603-0.74,2.342-2.342,2.342c-1.11,0-2.837-1.479-4.686-3.573
	c-21.58-24.912-45.015-51.919-66.719-77.079c-0.122,3.328-0.122,7.154-0.122,11.468c0,2.098,0,5.058,0.122,17.02
	c0,11.468,0.249,23.803,0.986,36.998c0.368,5.551,2.588,9.989,7.399,12.085v0.74c-5.302-0.367-11.222-0.74-15.17-0.74
	c-2.342,0-3.327,0-4.562,0.122c-0.497,0-0.62,0.126-1.356,0.126c-0.25,0.125-0.983,0.125-1.479,0.125
	c-0.369,0-1.975,0.122-2.347,0.122v-0.616c3.946-1.975,6.91-6.29,7.153-11.347c0.124-8.264,0.249-22.199,0.249-37.37
	c0-2.094,0-6.289,0.122-12.578c0.122-5.423,0.122-9.865,0.122-13.318c0-5.056-0.122-9.248-0.244-12.826v-0.864
	c-0.492-5.548-2.22-9.987-7.521-13.443l-0.25-0.861c1.357,0.124,3.945,0.37,5.055,0.497c3.335,0.364,6.663,0.487,9.378,0.613
	l66.717,78.929c0.124-6.167,0.124-14.926,0.124-26.272c0-12.697-0.371-26.14-0.984-38.475c-0.373-6.536-1.236-10.848-6.541-14.307
	v-0.614H624.796z"/>
<path d="M759.122,354.672c-0.493,0-0.989,0.121-1.481,0.121l-2.339,0.122v-1.601c3.945-1.972,9.123-9.62,9.123-14.924v-3.083
	c0.121-4.935,0.248-9.247,0.248-12.578v-17.515c0-12.699-0.371-26.143-0.988-38.476c-0.37-5.178-3.209-10.237-9.496-13.567
	l-0.247-0.987l2.097,0.124c0.492,0,1.107,0.126,1.603,0.126c7.032,0.617,13.567,1.11,16.524,1.11c2.589,0,7.03-0.121,13.815-0.493
	l3.451-0.245c5.674-0.373,10.605-0.622,13.194-0.622c7.771,0,13.322,0.496,13.322,2.591c0,1.853,0.244,4.071,0.613,6.662
	c0.247,2.095,0.371,3.698,0.371,4.809c0,0.742-0.614,1.11-1.972,1.11s-2.098-0.617-2.714-1.728l-0.372-0.738h0.127
	c0,0-0.619-0.863-0.619-0.986h0.121c-2.461-3.578-8.383-6.415-20.102-6.415c-1.475,0-4.189,0.124-7.764,0.494
	c-1.851,0.124-3.458,0.25-4.813,0.374c-0.738,0-1.354,0.119-1.972,0.119h0.617c-0.37,1.357-0.739,3.455-0.863,6.536
	c0,0.738-0.123,1.481-0.123,2.222c-0.122,3.327-0.248,7.029-0.371,11.097c-0.122,4.069-0.122,10.857-0.122,20.472
	c1.973,0,4.067,0,7.274,0.124c1.233,0,3.329,0.126,4.192,0.126c1.356,0.122,2.47,0.122,3.7,0.122c1.356,0,2.715,0,4.812-0.122
	c5.18-0.25,9.617-1.729,13.073-7.153h3.08c-0.121,0.618-0.248,1.109-0.248,1.725c-0.119,0.616-0.119,1.233-0.119,1.728
	c-0.373,2.587-0.497,4.437-0.497,7.029v4.562c0,0.615,0,1.479,0.124,2.593c0,0.614,0.121,1.354,0.121,2.216H810.3
	c-2.343-4.685-7.524-6.411-13.441-6.782c-2.466-0.245-5.673-0.371-9.744-0.371c-2.71,0-6.042,0.126-9.494,0.247h0.371
	c0,5.798,0.122,11.102,0.245,15.909c0.126,4.565,0.371,10.978,0.74,17.512c0.37,9.002,11.838,10.853,20.473,10.853
	c7.031,0,11.963-0.738,16.523-4.313c1.479-1.233,3.825-3.948,7.032-7.77c1.849-2.099,3.206-3.206,4.315-3.206
	c1.602,0,2.342,0.367,2.342,1.107c0,1.231-0.863,2.961-2.961,6.533c-1.848,3.211-2.958,5.798-3.452,7.896
	c-0.863,2.962-2.095,4.687-8.633,4.687h-18.62c-5.182,0-9.742,0-13.69-0.121h-11.098
	C768.122,353.932,764.302,354.301,759.122,354.672z"/>
<g>
	<path d="M524.838,128.1c5.973-10.75,14.452-19.946,23.171-19.946c8.002,0,12.183,4.778,10.391,17.915l-4.181,30.815
		c-0.716,5.494,0.837,6.568,2.867,6.568c2.15,0,5.853-2.388,9.793-11.346l2.747,1.314c-3.344,9.556-8.957,16.84-18.272,16.84
		c-8.958,0-9.913-6.808-9.078-13.376l4.061-30.456c0.836-6.331,0-9.913-4.418-9.913c-5.853,0-17.438,13.376-19.349,26.873
		l-3.583,25.679h-11.943l6.45-47.417c0.716-5.493-0.718-6.567-2.748-6.567c-2.149,0-5.852,2.268-9.793,11.346l-2.747-1.313
		c3.344-9.555,8.957-16.96,18.273-16.96c8.957,0,9.793,6.928,8.957,13.377L524.6,128.1H524.838z"/>
</g>
<g>
	<path fill="#079347" d="M729.517,366.192c-2.975-7.271-12.892-25.451-12.892-25.451s9.587,3.306,19.172,20.823
		C736.734,363.277,730.256,368,729.517,366.192z"/>
	<path fill="#079347" d="M674.398,345.616c0,0,7.472,3.75,19.419-0.108c3.137-1.013,11.758-4.687,15.04-4.974
		c2.488-0.215,9.21,1.351,7.314,2.974c-2.255,1.934-21.046,6.455-24.296,7.191C680.476,353.273,674.398,345.616,674.398,345.616z"/>
	<path fill="#079347" d="M653.202,314.131c-0.848,6.277,5.826,12.148,12.644,14.628c4.054,1.475,22.411,0.807,22.559,0.991
		c-0.002-0.003-0.123-5.33-0.123-5.33c-2.668,0.243-8.479,0.155-11.157,0.249C660.87,325.23,656.411,320.572,653.202,314.131z"/>
	<path fill="#079347" d="M652.954,316.114c0,0-4.757-13.009,2.231-21.195c4.34-5.082,14.503-9.049,14.503-9.049l0.124,3.595
		c0,0-6.943,3.224-12.52,8.924C651.406,304.407,652.954,316.114,652.954,316.114z"/>
	<path fill="#079347" d="M670.701,309.921c0.513-1.629,1.216-3.238,1.838-4.835c-1.5,1.304-6.172-1.039-7.726-1.627
		c-3.663-1.389-6.942-3.748-8.44-7.484c-0.813-2.03-1.245-4.185-1.668-6.322c-0.175-0.887-0.9-2.662-0.635-3.535
		c-1.99,6.567-1.804,14.141,4.658,18.022C662.511,306.412,666.656,308.132,670.701,309.921z"/>
	<path fill="#079347" d="M653.698,286.862c0.743-16.486,25.286-16.489,25.286-16.362v2.108
		C659.337,271.368,653.648,285.965,653.698,286.862z"/>
	<path fill="#079347" d="M664.481,288.349l0.373-14.376l1.375-0.501c0,0-0.188,4.544-0.136,6.059
		c0.034,1.013-0.144,3.127,0.372,4.038c0.485,0.861,3.223,2.656,3.223,2.656L664.481,288.349z"/>
	<path fill="#079347" d="M663.738,272.979c0,0,2.604-7.189,6.569-9.792c6.156-4.04,14.627-4.09,14.627-4.09l-0.372,1.612
		c0,0-7.753-1-13.634,3.595C666.96,267.401,663.738,272.979,663.738,272.979z"/>
	<path fill="#079347" d="M678.984,272.607l5.578-11.899l-1.735-1.116c0,0-3.843,4.958-4.463,10.537
		C678.294,270.763,678.984,272.607,678.984,272.607z"/>
	<path fill="#079347" d="M684.067,259.22c0,0,4.128-5.968,11.526-6.941c4.711-0.62,12.148,1.363,12.148,1.363l-2.108,1.363
		c0,0-7.532-1.882-10.04-1.487C692.418,254.018,684.067,259.22,684.067,259.22z"/>
	<path fill="#079347" d="M684.562,260.708c0,0,8.276,3.777,11.156,3.346c4.958-0.743,11.527-8.305,11.527-8.305v-1.363
		c0,0-6.941,5.578-11.404,7.437c-2.595,1.082-10.907-2.727-10.907-2.727L684.562,260.708z"/>
	<path fill="#079347" d="M705.634,255.005c0,0,9.5,7.116,13.202,6.818c5.393-0.434,11.404-5.082,11.404-5.082l-4.091-0.558
		c0,0-5.151,3.818-7.189,3.842c-3.611,0.042-9.607-6.507-12.892-6.507C705.681,253.519,705.634,255.005,705.634,255.005z"/>
	<path fill="#079347" d="M707.246,253.827c0,0,5.516-3.215,11.404-3.16c6.569,0.062,11.59,6.075,11.59,6.075l-4.091-0.558v-1.674
		c0,0-1.429-2.429-7.562-2.665c-3.223-0.123-7.988,1.79-10.474,2.355C707.314,254.382,707.246,253.827,707.246,253.827z"/>
	<path fill="#079347" d="M743.688,254.634c0,0,0.17,1.477-0.186,1.426c-5.578-0.806-13.883,0.433-13.883,0.433
		s-1.134-0.679-0.868-0.806C732.408,253.951,743.688,254.634,743.688,254.634z"/>
	<path fill="#079347" d="M729.187,256.989c2.045,3.657,9.792,8.242,9.792,8.242l0.93-1.115c0,0-7.562-5.083-8.058-7.375
		c-0.072-0.333,1.302-0.62,1.302-0.62l-4.215,0.185C728.938,256.307,729.098,256.83,729.187,256.989z"/>
	<g>
		
			<rect x="735.104" y="255.526" transform="matrix(0.9874 0.158 -0.158 0.9874 50.077 -112.9598)" fill="#079347" width="0.497" height="5.777"/>
	</g>
	<g>
		
			<rect x="740.032" y="254.962" transform="matrix(0.9363 0.3511 -0.3511 0.9363 138.2723 -243.4033)" fill="#079347" width="0.496" height="9.198"/>
	</g>
	<g>
		
			<rect x="719.703" y="251.564" transform="matrix(0.9795 0.2016 -0.2016 0.9795 66.4214 -139.8812)" fill="#079347" width="0.497" height="9.177"/>
	</g>
	<g>
		<rect x="714.498" y="251.844" fill="#079347" width="0.495" height="7.314"/>
	</g>
	<g>
		
			<rect x="700.398" y="253.269" transform="matrix(0.9663 0.2574 -0.2574 0.9663 89.7457 -171.658)" fill="#079347" width="0.495" height="7.502"/>
	</g>
	<g>
		
			<rect x="689.729" y="257.671" transform="matrix(0.0533 0.9986 -0.9986 0.0533 915.4607 -449.7815)" fill="#079347" width="10.427" height="0.495"/>
	</g>
	<g>
		
			<rect x="686.534" y="258.663" transform="matrix(0.3449 0.9386 -0.9386 0.3449 694.9067 -477.8323)" fill="#079347" width="6.47" height="0.495"/>
	</g>
	<g>
		<rect x="677.869" y="260.459" fill="#079347" width="0.495" height="10.784"/>
	</g>
	<g>
		
			<rect x="668.827" y="267.092" transform="matrix(0.6979 0.7162 -0.7162 0.6979 395.2483 -401.8329)" fill="#079347" width="10.212" height="0.991"/>
	</g>
	<g>
		
			<rect x="658.777" y="279.177" transform="matrix(0.7407 0.6719 -0.6719 0.7407 359.6764 -372.5017)" fill="#079347" width="7.196" height="0.99"/>
	</g>
	<g>
		
			<rect x="654.433" y="284.723" transform="matrix(0.9784 0.2068 -0.2068 0.9784 73.244 -130.4151)" fill="#079347" width="12.29" height="0.993"/>
	</g>
	<g>
		
			<rect x="655.835" y="300.498" transform="matrix(0.0098 1 -1 0.0098 953.7327 -355.4151)" fill="#079347" width="0.992" height="6.755"/>
	</g>
	<g>
		
			<rect x="660.267" y="301.879" transform="matrix(0.3743 0.9273 -0.9273 0.3743 701.4573 -418.4072)" fill="#079347" width="0.994" height="17.379"/>
	</g>
	<g>
		
			<rect x="663.365" y="309.003" transform="matrix(0.7037 0.7105 -0.7105 0.7037 421.7379 -377.8562)" fill="#079347" width="0.994" height="15.339"/>
	</g>
	<g>
		
			<rect x="672.725" y="324.979" transform="matrix(0.5023 0.8647 -0.8647 0.5023 622.2238 -416.8572)" fill="#079347" width="0.992" height="14.191"/>
	</g>
	<g>
		
			<rect x="679.139" y="325.658" transform="matrix(0.6739 0.7388 -0.7388 0.6739 470.3883 -392.3363)" fill="#079347" width="0.993" height="22.066"/>
	</g>
	<g>
		
			<rect x="685.492" y="335.599" transform="matrix(0.7696 0.6385 -0.6385 0.7696 376.7463 -359.116)" fill="#079347" width="0.991" height="13.775"/>
	</g>
	<g>
		
			<rect x="705.387" y="342.96" transform="matrix(0.8573 0.5148 -0.5148 0.8573 282.8612 -312.8937)" fill="#079347" width="0.992" height="21.735"/>
	</g>
	<g>
		<path fill="#079347" d="M708.548,368.92c-0.096,0-0.188-0.026-0.271-0.083c-0.229-0.15-0.293-0.457-0.143-0.685l13.509-20.637
			c0.152-0.233,0.461-0.295,0.687-0.146c0.229,0.15,0.294,0.457,0.144,0.687l-13.511,20.639
			C708.868,368.841,708.708,368.92,708.548,368.92z"/>
	</g>
	<g>
		<path fill="#079347" d="M674.658,348.36c-5.898-2.312-9.748-9.444-10.788-15.327c-0.342-1.924-0.407-3.882-0.32-5.829
			c0.192-4.311,0.886-7.591,2.833-11.459c1.58-3.145,3.237-6.229,5.062-9.24c0.106-0.178,1.183-1.574,1.094-1.794
			c0.002,0.004,2.603,6.446,2.603,6.446c-1.51,2.211-2.902,4.515-4.185,6.865c-2.13,3.905-2.976,7.324-2.961,11.781
			C668.021,337.092,670.591,342.425,674.658,348.36z"/>
		<path fill="#FFFFFF" d="M675.979,349.409l-1.503-0.587c-6.142-2.407-10.057-9.828-11.095-15.705
			c-0.317-1.794-0.425-3.736-0.326-5.936c0.207-4.68,1.017-7.948,2.885-11.658c1.765-3.513,3.425-6.545,5.079-9.275
			c0.028-0.043,0.105-0.155,0.213-0.302c0.188-0.263,0.759-1.056,0.822-1.273c0,0-0.026,0.097,0.025,0.225l0.902-0.409
			c0.002,0.004,0.003,0.008,0.015,0.037h0.001c0.004,0.008,0.007,0.019,0.011,0.029c0.092,0.224,0.516,1.271,2.593,6.416
			l0.098,0.247l-0.148,0.219c-1.441,2.113-2.841,4.409-4.157,6.824c-2.075,3.804-2.916,7.146-2.901,11.539
			c0.023,7.243,2.646,12.546,6.574,18.281L675.979,349.409z M672.482,305.893c-0.124,0.182-0.271,0.39-0.444,0.632
			c-0.083,0.115-0.146,0.201-0.17,0.239c-1.64,2.707-3.291,5.717-5.043,9.204c-1.8,3.576-2.579,6.731-2.781,11.259
			c-0.094,2.125,0.009,3.997,0.314,5.718c0.896,5.075,4.009,11.344,8.873,14.174c-3.46-5.323-5.708-10.468-5.731-17.312
			c-0.015-4.575,0.861-8.058,3.023-12.021c1.285-2.357,2.651-4.608,4.061-6.688C674.242,310.25,673.098,307.418,672.482,305.893z"/>
	</g>
	<g>
		<path fill="#079347" d="M706.377,368.177c0,0-7.363-5.771-8.675-18.966c-1.57-15.785-8.298-27.333-9.131-24.834
			c-0.992,2.976,1.693,25.453,2.271,28.926C692.869,365.476,706.377,368.177,706.377,368.177z"/>
		<path fill="#FFFFFF" d="M706.329,368.42c-0.136-0.028-13.7-2.878-15.731-15.076c-0.514-3.088-3.306-25.91-2.263-29.044
			c0.148-0.445,0.443-0.511,0.606-0.511c1.88,0,7.574,10.993,9.007,25.397c1.285,12.923,8.511,18.738,8.584,18.795L706.329,368.42z
			 M688.941,324.286c-0.02,0-0.078,0-0.136,0.17c-0.961,2.886,1.646,24.987,2.282,28.805c1.663,9.993,11.307,13.541,14.392,14.43
			c-1.924-1.899-6.966-7.812-8.025-18.455C696.031,334.918,690.354,324.286,688.941,324.286z"/>
	</g>
</g>
</svg>
